<svg xmlns="http://www.w3.org/2000/svg" viewBox="0 0 35.76 39.42"><defs><style>.cls-1{fill:#fff;}</style></defs><g id="Capa_2" data-name="Capa 2"><g id="Capa_1-2" data-name="Capa 1"><path class="cls-1" d="M17.88,39.42H2.34A2.12,2.12,0,0,1,0,37.1V17a4.08,4.08,0,0,1,1.44-3.19L16.25.67a2.32,2.32,0,0,1,3.26,0L34.37,13.82a4,4,0,0,1,1.39,3.1V37.13a2.12,2.12,0,0,1-2.3,2.29Zm0-1.39H33.35c.8,0,1-.21,1-1q0-10,0-19.92a3,3,0,0,0-1-2.34l-14.71-13a.94.94,0,0,0-1.45,0L2.38,14.81A2.81,2.81,0,0,0,1.4,17V37c0,.77.22,1,1,1Z"/></g></g></svg>