<svg xmlns="http://www.w3.org/2000/svg" viewBox="0 0 111.82 96.07"><defs><style>.cls-1{fill:#609;}</style></defs><g id="Capa_2" data-name="Capa 2"><g id="Capa_1-2" data-name="Capa 1"><path class="cls-1" d="M24.55,40.6v-29c-.37.34-.62.56-.86.8-3,3-6,6-9,9a3.23,3.23,0,0,1-5.53-1.54,3.31,3.31,0,0,1,1.16-3.25q6.08-6,12.11-12c1-1,2-2,3-3a3.19,3.19,0,0,1,4.85,0q7.62,7.58,15.19,15.19a3.19,3.19,0,0,1,.11,4.71,3.15,3.15,0,0,1-4.62-.18c-3-2.95-5.92-5.92-8.88-8.87l-.89-.85V40.71a27.4,27.4,0,0,1,20,12.53,27.15,27.15,0,0,1,4.16,18.92,27.76,27.76,0,0,1-54.82,1,26.92,26.92,0,0,1,5.05-21.5A27.66,27.66,0,0,1,24.55,40.6Zm3.23,49.08A21.34,21.34,0,1,0,6.49,68.21,21.35,21.35,0,0,0,27.78,89.68Z"/><path class="cls-1" d="M87.29,55.38V74.74H88.4c3.26,0,6.53,0,9.8,0a3.15,3.15,0,0,1,3.21,2.61,3.08,3.08,0,0,1-1.92,3.48,5,5,0,0,1-1.72.27c-3.11,0-6.21,0-9.32,0H87.24v1.21c0,3.34,0,6.67,0,10a3.19,3.19,0,1,1-6.37,0c0-3.34,0-6.67,0-10V81.17l-1.13,0c-3.2,0-6.41,0-9.61,0a3.2,3.2,0,1,1-.1-6.38c3.2,0,6.41,0,9.61,0h1.15V55.48c-8.93-1.35-15.93-5.76-20.61-13.55a26.79,26.79,0,0,1-3.38-19.35,27.76,27.76,0,1,1,30.51,32.8ZM84,49.08A21.3,21.3,0,1,0,62.76,27.73,21.28,21.28,0,0,0,84,49.08Z"/></g></g></svg>