<svg xmlns="http://www.w3.org/2000/svg" viewBox="0 0 96.84 60.88"><defs><style>.cls-1{fill:#fff;}</style></defs><g id="Capa_2" data-name="Capa 2"><g id="Capa_1-2" data-name="Capa 1"><path class="cls-1" d="M56.38,47.13c-.36,2.78-.72,5.53-1.08,8.29-.07.55-.12,1.11-.2,1.66a4.25,4.25,0,0,1-4.22,3.75,49.25,49.25,0,0,1-5,0,4.23,4.23,0,0,1-4.12-4c-.39-3.2-.83-6.39-1.25-9.61-.64-.12-1.25-.2-1.84-.36a5.15,5.15,0,0,1-3.88-6.39c1.37-5.91,2.77-11.8,4.24-17.68.58-2.35,1.81-4.28,4.33-5a5.83,5.83,0,0,1,1.56-.17q3.53,0,7,0a5.34,5.34,0,0,1,5.5,3.83,46.27,46.27,0,0,1,1.26,4.83Q60.39,33.13,62,40.05a5.44,5.44,0,0,1-4.9,7ZM48.46,20.58c-1.23,0-2.47-.08-3.69,0a3,3,0,0,0-1.77.75,4.58,4.58,0,0,0-1,2c-1.46,5.91-2.86,11.83-4.27,17.76a1.91,1.91,0,0,0,1.16,2.45,8.3,8.3,0,0,0,2.55.41c1.25.07,1.75.45,1.91,1.7.48,3.57.94,7.15,1.41,10.72.13,1,.49,1.34,1.48,1.36,1.35,0,2.7,0,4,0S52,57.48,52.15,56c.44-3.48.9-7,1.38-10.45.16-1.16.66-1.55,1.83-1.57.5,0,1,0,1.49,0a2.47,2.47,0,0,0,2.28-3q-2.18-9-4.37-18.09a2.71,2.71,0,0,0-3-2.31Z"/><path class="cls-1" d="M5.85,47.16c-.76-.17-1.47-.25-2.13-.47A5.08,5.08,0,0,1,.17,40.4C1.53,34.59,2.9,28.77,4.35,23a10.59,10.59,0,0,1,1.49-3.24A4.81,4.81,0,0,1,10,17.55h7.39a5.22,5.22,0,0,1,5.3,3.59A40.54,40.54,0,0,1,24.05,26c1.17,4.84,2.37,9.67,3.45,14.53A5.32,5.32,0,0,1,22.77,47c-.79.09-1.06.33-1.15,1.14-.32,2.94-.74,5.87-1.14,8.8a4.22,4.22,0,0,1-4.21,3.94,49.23,49.23,0,0,1-5,0c-2.4-.13-3.87-1.71-4.16-4.21-.35-2.94-.74-5.87-1.12-8.81A5.3,5.3,0,0,0,5.85,47.16ZM13.9,20.58c-1.26,0-2.52,0-3.78,0A2.21,2.21,0,0,0,8,21.78a8.54,8.54,0,0,0-.73,1.87C5.9,29.4,4.54,35.15,3.17,40.9A2.35,2.35,0,0,0,5.44,44c.55,0,1.11,0,1.67,0a1.5,1.5,0,0,1,1.55,1.28c.08.37.12.75.17,1.13l1.29,9.94c.1.81.42,1.41,1.35,1.41h4.66a1.23,1.23,0,0,0,1.33-1.23c.43-3.25.83-6.51,1.27-9.76.27-2,.08-2.93,3-2.76a1.08,1.08,0,0,0,.18,0,2.52,2.52,0,0,0,2.52-3.32q-2.1-8.74-4.19-17.49c-.45-1.88-1.36-2.62-3.27-2.62Z"/><path class="cls-1" d="M83.16,17.55c1.12,0,2.23,0,3.35,0a5.39,5.39,0,0,1,5.6,3.93c.56,1.62.88,3.33,1.29,5,1.1,4.59,2.23,9.16,3.29,13.76A5.38,5.38,0,0,1,91.89,47c-.77.07-1,.41-1,1.07-.35,2.94-.72,5.87-1.11,8.81a4.3,4.3,0,0,1-4.45,4c-1.55,0-3.11,0-4.66,0A4.2,4.2,0,0,1,76.42,57c-.42-3-.83-6-1.18-9.06-.08-.67-.31-.9-.95-1a5.72,5.72,0,0,1-3.65-1.74,4.48,4.48,0,0,1-1.33-4.35c1.44-6.16,2.86-12.32,4.42-18.45.86-3.42,3-4.88,6.44-4.89h3Zm0,3c-1.26,0-2.52,0-3.78,0a2.12,2.12,0,0,0-1.94,1,6.65,6.65,0,0,0-.79,1.84q-2.16,8.88-4.26,17.76a1.74,1.74,0,0,0,.91,2.23,7.38,7.38,0,0,0,2.59.56c1.51.09,2,.46,2.17,1.94.45,3.55.93,7.09,1.39,10.63a1.23,1.23,0,0,0,1.33,1.22h4.58a1.26,1.26,0,0,0,1.38-1.27c.14-1.19.32-2.38.48-3.57.31-2.41.6-4.82.94-7.23.17-1.25.7-1.67,1.93-1.69.44,0,.89,0,1.32,0a2.46,2.46,0,0,0,2.34-3.16Q91.57,31.92,89.42,23a2.78,2.78,0,0,0-3.06-2.42Z"/><path class="cls-1" d="M13.89,16.7a8.26,8.26,0,0,1-8.4-8.24A8.36,8.36,0,0,1,13.9,0a8.5,8.5,0,0,1,8.31,8.34A8.37,8.37,0,0,1,13.89,16.7Zm5.17-8.28A5.11,5.11,0,0,0,13.87,3.1,5.25,5.25,0,0,0,8.55,8.29a5.34,5.34,0,0,0,5.32,5.41A5.21,5.21,0,0,0,19.06,8.42Z"/><path class="cls-1" d="M83.08,16.7a8.3,8.3,0,0,1-8.37-8.29A8.41,8.41,0,0,1,83.19,0a8.26,8.26,0,0,1,8.22,8.38A8.15,8.15,0,0,1,83.08,16.7Zm5.26-8.31a5.19,5.19,0,0,0-5.17-5.3,5.31,5.31,0,0,0-.12,10.61A5.27,5.27,0,0,0,88.34,8.39Z"/><path class="cls-1" d="M40.11,8.49A8.35,8.35,0,0,1,48.49,0,8.24,8.24,0,0,1,56.8,8.39a8.18,8.18,0,0,1-8.26,8.32A8.3,8.3,0,0,1,40.11,8.49Zm13.62-.21A5.18,5.18,0,0,0,48.44,3.1a5.25,5.25,0,0,0-5.27,5.24,5.28,5.28,0,1,0,10.56-.06Z"/></g></g></svg>