<svg xmlns="http://www.w3.org/2000/svg" viewBox="0 0 70.74 77.97"><defs><style>.cls-1{fill:#fff;}</style></defs><g id="Capa_2" data-name="Capa 2"><g id="Capa_1-2" data-name="Capa 1"><path class="cls-1" d="M25.55,12.68V2.11a1.92,1.92,0,1,1,3.82,0c0,2.4,0,4.79,0,7.18v3.35h1.15q12.73,0,25.45,0a3.3,3.3,0,0,1,2.57,1.07c3.74,3.84,7.53,7.64,11.3,11.45,1.21,1.23,1.21,2.17,0,3.42-3.77,3.81-7.55,7.61-11.3,11.45a3.24,3.24,0,0,1-2.49,1c-8.45,0-16.9,0-25.35,0h-1.3v34.3a6.76,6.76,0,0,1,0,.9,1.9,1.9,0,0,1-3.79-.07c0-.3,0-.6,0-.91V41.13c-.43,0-.8-.05-1.18-.05H2.65C.58,41.08,0,40.5,0,38.44V15.35c0-2.09.59-2.67,2.72-2.67H25.55ZM3.88,37.21c.31,0,.58,0,.85,0q25.21,0,50.43,0a2.1,2.1,0,0,0,1.31-.59c3.05-3,6.06-6.1,9.08-9.16.19-.19.36-.39.78-.86-3.4-3.28-6.76-6.55-10.17-9.78A1.82,1.82,0,0,0,55,16.51H4.86c-.32,0-.64,0-1,.05Z"/></g></g></svg>