<svg xmlns="http://www.w3.org/2000/svg" viewBox="0 0 219.58 30.24"><defs><style>.cls-1{fill:#fff;}</style></defs><g id="Capa_2" data-name="Capa 2"><g id="Capa_1-2" data-name="Capa 1"><path class="cls-1" d="M76.55,12.37c-2.73-2.66-5.1-4.94-7.43-7.26C67.52,3.51,67.33,2,68.51.8s2.62-1,4.3.68C76.57,5.25,80.34,9,84.08,12.82c1.68,1.7,1.7,3,0,4.63C80.27,21.33,76.37,25.17,72.5,29c-1.22,1.22-2.53,1.72-4,.45-1.24-1.07-1.1-2.67.34-4.14,2.37-2.42,4.78-4.79,7.4-7.42a17.93,17.93,0,0,0-1.82-.19q-21.61,0-43.22,0c-1.31,0-2,.23-2.4,1.68A14.66,14.66,0,0,1,12.65,29.77,14.77,14.77,0,1,1,28.87,11c.36,1.19.8,1.58,2,1.58q22.16-.06,44.3,0C75.41,12.53,75.62,12.49,76.55,12.37ZM24.28,15.14A9.46,9.46,0,0,0,14.7,5.59a9.55,9.55,0,0,0,0,19.09A9.46,9.46,0,0,0,24.28,15.14Z"/><path class="cls-1" d="M125.18,12.49h45.65L165.2,6.82c-.72-.72-1.44-1.42-2.14-2.15-1.17-1.21-1.41-2.56-.19-3.81s2.6-1.07,3.81.11c1.75,1.71,3.47,3.46,5.2,5.2,2.23,2.24,4.49,4.46,6.7,6.74,1.61,1.66,1.64,2.83,0,4.45-3.9,3.94-7.84,7.83-11.77,11.75-1.24,1.23-2.58,1.61-4,.35-1.2-1.08-1-2.65.45-4.13,2.38-2.4,4.8-4.76,7.48-7.41H125a15.15,15.15,0,0,1-8.19,10.5,14.18,14.18,0,0,1-9.67,1.09A14.79,14.79,0,0,1,95.64,14.75,14.93,14.93,0,0,1,107.92.56C115.55-.82,121.43,3.23,125.18,12.49Zm-14.59-6.9A9.55,9.55,0,1,0,120,15.13,9.61,9.61,0,0,0,110.59,5.59Z"/><path class="cls-1" d="M204.74.4A14.74,14.74,0,1,1,190.1,15.11,14.71,14.71,0,0,1,204.74.4Zm-9.45,14.78a9.55,9.55,0,1,0,9.54-9.59A9.44,9.44,0,0,0,195.29,15.18Z"/></g></g></svg>