<svg xmlns="http://www.w3.org/2000/svg" viewBox="0 0 52.91 31.33"><defs><style>.cls-1{fill:#fff;}</style></defs><g id="Capa_2" data-name="Capa 2"><g id="Capa_1-2" data-name="Capa 1"><path class="cls-1" d="M13.93,29.51h7.24v-.83c0-4.29.07-8.58,0-12.87a3.36,3.36,0,0,1,3.65-3.6c1.12.09,2.25,0,3.37,0a3.2,3.2,0,0,1,3.52,3.56c0,4.29,0,8.58,0,12.87v.84H39V3.67C39,1.24,40.26,0,42.66,0h3.5a3.16,3.16,0,0,1,3.38,3.36q0,10.46,0,20.89v5.26h3.37v1.82H0V29.58H3.35c0-.31,0-.55,0-.78,0-1.93,0-3.86,0-5.8a3.14,3.14,0,0,1,3.34-3.32h3.84A3.16,3.16,0,0,1,13.89,23c0,2.05,0,4.09,0,6.13A3.91,3.91,0,0,0,13.93,29.51Zm33.79,0a2.63,2.63,0,0,0,0-.33q0-12.93,0-25.86a1.38,1.38,0,0,0-1.5-1.52c-1.19,0-2.38,0-3.57,0-1.38,0-1.83.43-1.83,1.79V29.5Zm-17.92,0a1.23,1.23,0,0,0,.06-.25c0-4.62,0-9.25,0-13.88A1.32,1.32,0,0,0,28.42,14H24.71c-1.29,0-1.75.45-1.75,1.73V28.82c0,.22,0,.43,0,.68Zm-17.74,0c0-2.32,0-4.6,0-6.88a1.24,1.24,0,0,0-1.29-1.13c-1.42,0-2.83,0-4.24,0a1.33,1.33,0,0,0-1.33,1.4c0,.65,0,1.3,0,1.95v4.66Z"/></g></g></svg>