<svg xmlns="http://www.w3.org/2000/svg" viewBox="0 0 121 120.98"><defs><style>.cls-1{fill:#609;}</style></defs><g id="Capa_2" data-name="Capa 2"><g id="Capa_1-2" data-name="Capa 1"><path class="cls-1" d="M33.2,31.32c0-2.62,0-5.22,0-7.82a13.56,13.56,0,0,1,11-13.43,14.39,14.39,0,0,1,3-.29q13.32,0,26.64,0a13.64,13.64,0,0,1,14,14c0,2.49,0,5,0,7.53.69.16,1.33.3,2,.46a15.53,15.53,0,0,1,10.75,20.39,2.2,2.2,0,0,0,.21,2.11q9.33,15.87,18.6,31.76a11.45,11.45,0,0,1-9.85,17.41c-6.77,0-13.53,0-20.3,0H87.85V121H83.92v-1.34c0-11.58,0-23.17,0-34.75,0-1-.23-1.41-1.25-1.55-1.68-.23-3.33-.64-5-1-1-.19-1.58.28-1.58,1.29,0,3.92,0,7.84,0,11.76a15.61,15.61,0,0,1-31.21.76c-.07-4.13,0-8.25,0-12.38,0-1.18-.51-1.63-1.65-1.41-1.71.32-3.39.73-5.1,1-.83.13-1.08.44-1.07,1.26,0,4,0,8,0,12V121H33.25V103.45H32c-6.73,0-13.46,0-20.19,0A11.4,11.4,0,0,1,0,92.71a10.38,10.38,0,0,1,1.42-6.29q9.42-16.11,18.85-32.21a2.11,2.11,0,0,0,.19-2A15.53,15.53,0,0,1,32.12,31.57ZM37.15,43c0,.4-.06.64-.06.88,0,5.55,0,11.1,0,16.65A23.41,23.41,0,0,0,64.44,83.62C74.89,82,83.38,72.72,83.81,62.16c.25-6.2.09-12.41.1-18.62a3.24,3.24,0,0,0-.11-.64c-7.29.68-13.4-1.29-17.36-7.81-.14,0-.18,0-.2.08s-.23.33-.35.51c-2.87,4.3-6.84,6.93-12,7.18S43.67,43,38.57,43Zm-.06-4a3,3,0,0,0,.52.09c5.2,0,10.41.09,15.61,0a11.56,11.56,0,0,0,10.84-8.92c.2-.87.3-1.76.45-2.68h3.68a1.13,1.13,0,0,1,.11.26,6.18,6.18,0,0,1,.07.62,11.22,11.22,0,0,0,2.54,6.37c3.37,4.19,8,4.76,13,4.29,0-.34,0-.68,0-1,0-4.72,0-9.44,0-14.16,0-6-4.21-10.11-10.19-10.11H47.5c-6.31,0-10.4,4.08-10.41,10.42,0,4.58,0,9.15,0,13.73ZM92.22,61.43C95.11,69,98.06,76.62,101,84.27c.38,1,.84,2,0,2.91s-1.95.61-3,.31l-7.89-2.25-2.22-.62V99.56h20.87c.52,0,1,0,1.56-.07a7.54,7.54,0,0,0,5.79-11.21Q107.19,73,98.21,57.68a2.51,2.51,0,0,0-.33-.46ZM23.09,57.19a3,3,0,0,0-.18.27Q13.82,73,4.76,88.52a5,5,0,0,0-.49,1.14,7.58,7.58,0,0,0,7.42,9.89c6.83,0,13.67,0,20.5,0,.3,0,.6,0,.93-.08V84.64c-.32.08-.55.12-.78.19-3.26.92-6.53,1.84-9.79,2.79a2.22,2.22,0,0,1-2.5-.4,2.18,2.18,0,0,1-.22-2.52q4.37-11.28,8.69-22.59c.12-.31.22-.62.24-.7Zm25.72,28c0,2.88,0,5.58,0,8.28A24.82,24.82,0,0,0,49,97.54a11.68,11.68,0,0,0,23.21-2c0-3.09,0-6.18,0-9.27,0-.29,0-.59-.07-1a27.3,27.3,0,0,1-23.32,0ZM33.14,35.43c-5.45.51-9.84,5.93-9.7,11.94.13,5.36,4.83,10.68,9.7,10.9Zm54.74,0V58.27c4.81-.3,9.44-5.41,9.68-10.61A11.65,11.65,0,0,0,87.88,35.39ZM80.81,78.8l15.36,4c0-.18,0-.26,0-.32q-3.77-9.78-7.52-19.55a2.44,2.44,0,0,0-.48-.59,6.25,6.25,0,0,0-.43.7,1.7,1.7,0,0,0-.08.51A26.84,26.84,0,0,1,81.36,78.1C81.16,78.34,81,78.58,80.81,78.8Zm-56.06,4,15.41-4a.37.37,0,0,0-.07-.18A27.39,27.39,0,0,1,33.3,63c0-.23-.23-.44-.35-.66-.19.21-.45.38-.55.63-1.28,3.28-2.54,6.58-3.81,9.87Z"/><path class="cls-1" d="M102.89,19.53H96c-2,0-2.85-1.38-1.94-3.21,2.47-5,5-9.9,7.42-14.87A2.39,2.39,0,0,1,103.9,0c3.61,0,7.22,0,10.82,0,2.15,0,3,1.5,1.87,3.35-1.23,2.08-2.48,4.15-3.83,6.4,2,0,3.84,0,5.66,0a2.25,2.25,0,0,1,2.38,1.13,2.23,2.23,0,0,1-.61,2.55q-8.34,10.17-16.67,20.36l-.46.56a1.87,1.87,0,0,1-2.42.57,1.84,1.84,0,0,1-1-2.27c.51-2.12,1-4.23,1.57-6.35Zm-4.06-4c.43,0,.67,0,.91,0,1.8,0,3.6,0,5.4,0a2,2,0,0,1,2.07,2.69c-.07.31-.15.61-.23.91-.44,1.83-.89,3.65-1.34,5.48l.2.09,9.09-11.11c-1.83,0-3.42,0-5,0a2.28,2.28,0,0,1-2.33-1,2.31,2.31,0,0,1,.37-2.52c1.09-1.77,2.14-3.56,3.21-5.34.15-.26.27-.53.45-.89-2.26,0-4.37,0-6.48,0a1.19,1.19,0,0,0-.79.62c-.72,1.34-1.38,2.72-2.06,4.08C101.16,10.9,100,13.16,98.83,15.57Z"/><path class="cls-1" d="M18.12,19.53,20,27.15c.43,1.71.87,3.42,1.29,5.13.33,1.34,0,2.21-1,2.67s-1.75.2-2.61-.85Q9.19,23.67.67,13.25a2,2,0,0,1-.45-2.38A2.11,2.11,0,0,1,2.3,9.76H8.14A8.27,8.27,0,0,0,7.77,9c-1.14-1.9-2.29-3.79-3.42-5.7C3.33,1.53,4.18,0,6.21,0c3.67,0,7.35,0,11,0a2.28,2.28,0,0,1,2.24,1.38c2.49,5,5,10,7.51,15.06.84,1.71,0,3.08-1.92,3.09Zm-12-5.84c3.14,3.83,6.13,7.47,9.11,11.12a58.73,58.73,0,0,0-1.26-5.93c-.59-2.34.12-3.26,2.52-3.26H22a1.53,1.53,0,0,0,0-.32c-1.82-3.66-3.63-7.32-5.48-11a.84.84,0,0,0-.62-.39c-2.14,0-4.27,0-6.56,0,.24.44.39.74.56,1C11,6.76,12.1,8.56,13.18,10.38s.23,3.29-1.84,3.3Z"/></g></g></svg>