<svg xmlns="http://www.w3.org/2000/svg" viewBox="0 0 142.16 142.27"><defs><style>.cls-1{fill:#609;}</style></defs><g id="Capa_2" data-name="Capa 2"><g id="Capa_1-2" data-name="Capa 1"><path class="cls-1" d="M45.92,142.2V117.06c-.53,0-1-.09-1.38-.09H35.86c-4,0-5-.74-6.19-4.57-3.19,0-6.4,0-9.61,0a15.6,15.6,0,0,1-14.76-11c-1-3.06-.6-6.12-.34-9.2.63-7.47,1.38-14.93,1.77-22.41.11-2.19-.82-4.44-1.34-6.64-.06-.25-.54-.44-.86-.56A6.38,6.38,0,0,1,0,56.44c0-2.85-.06-5.7,0-8.56A6.48,6.48,0,0,1,6.4,41.3a1.47,1.47,0,0,0,1-.67A6.38,6.38,0,0,1,15.12,37c1.39.34,2.75.78,4.15,1,3.32.63,5.41,2.46,6,5.93a7,7,0,0,1,5.47.48A5.49,5.49,0,0,1,32.6,46a3.82,3.82,0,0,0,2.93,1.68c.24,0,.47.1.71.15.92.19,2,.75,2.7.48s1-1.42,1.47-2.15a7.68,7.68,0,0,1,1.08-1.32,14.86,14.86,0,0,1,1.63-1.12A22.21,22.21,0,0,1,41,42a7.37,7.37,0,0,1,.46-10.6c7.33-6.71,16-9.16,25.81-8.3a30.79,30.79,0,0,1,13,4.14,2.86,2.86,0,0,0,1.37.36A16.85,16.85,0,0,1,98.59,44.81,64.32,64.32,0,0,1,96.87,59.7c-.3,1.26.06,1.62,1.21,1.87,9.62,2.1,19.23,4.25,28.84,6.38,4.66,1,7,4.87,5.66,9.47-1,3.64-2.06,7.28-3.11,10.91-1.29,4.49-5,6.57-9.54,5.35q-18.39-4.92-36.77-9.87c-1.81-.49-2.48.13-2,1.89.25,1,.53,2,.75,3.08a1.08,1.08,0,0,0,1.13,1c3.88.42,7.81.67,11.63,1.43a20.39,20.39,0,0,1,15.87,13.23c2.11,5.46,3.91,11,5.57,16.66,1.91,6.5.69,12.59-2.87,18.35a5.29,5.29,0,0,1-5.22,2.84c-20.13-.13-40.25-.07-60.38-.07ZM72.76,36l-3.25-3.35L74,29.25c-4.7-1.9-9.53-1.92-14.37-1.49-5.63.5-10.41,3-14.64,6.68-1.73,1.5-1.86,3.17-.22,4.81,1.44,1.43,2.91,2.84,4.46,4.35-1.55,1.52-3,2.93-4.44,4.38a3.67,3.67,0,0,0-.67,4.59c1.34,2,2.86,3.94,4.22,5.78l4.1-1.11c-4.6-8-.55-14.51,6-17.73l2.48,3.73c-1.09.73-2.1,1.35-3,2a6.32,6.32,0,0,0-2.74,6.15c.48,4.05,4,6.46,8.35,5.92,2.28-.27,3.86-1.61,5.31-3.2.9-1,0-2,0-3-.06-5.42,2.8-9,8-11.6.79,1.19,1.59,2.4,2.45,3.68-1,.71-2,1.33-3,2a6.31,6.31,0,0,0-2.79,6.13c.63,5.45,6.18,7.12,10.41,5.4a1.36,1.36,0,0,0,1-1.57c-.07-.76,0-1.53,0-2.32h4.66v4.39l3,.56a1.77,1.77,0,0,0,.15-.41A52.67,52.67,0,0,0,94,43.85,12.24,12.24,0,0,0,78.82,32.51,12.62,12.62,0,0,0,72.76,36ZM60.93,108.56c-.22-.42-.42-.76-.6-1.12-2-4.11-4.12-8.22-6.15-12.34a1.56,1.56,0,0,0-1.64-1c-5.67,0-11.33,0-17,0-.35,0-.7.05-1.06.08v18.19h9.85c-.15-.45-.28-.82-.42-1.26l4-2c.57,1.13,1,2.16,1.6,3.14a7.69,7.69,0,0,1,1,4.19c0,6.55,0,13.11,0,19.67v1.48H68.73V104.68Zm12.55-3.87v32.83H91.7V136c0-6.64.09-13.28,0-19.92,0-2.74,1.67-4.62,2.56-7l4.09,2.06a4.36,4.36,0,0,1-.36.79c-1.53,1.94-1.27,3.81.06,5.74.4.57.63.78,1.33.5a33.44,33.44,0,0,0,8.55-4.89,1,1,0,0,0,.37-1.33c-.64-1.8-1.18-3.64-1.84-5.43a15.88,15.88,0,0,0-9.67-9.89c-2.45-.88-5.15-1-7.73-1.56-.77-.16-1.07.17-1.38.8-1.91,3.86-3.85,7.71-5.78,11.57-.19.38-.4.75-.61,1.15ZM20.83,98.57a2.05,2.05,0,0,1-.12-.4q0-12.76,0-25.54a1.4,1.4,0,0,1,.68-1c1.17-.66,2.41-1.18,3.58-1.84a8.68,8.68,0,0,0,4.81-7.69c.1-3.83,0-7.66,0-11.48a2.28,2.28,0,0,0-2.18-2.46,2.32,2.32,0,0,0-2.36,2.43,22.57,22.57,0,0,0,0,3.29,3.83,3.83,0,0,1-1.49,3.61,8.69,8.69,0,0,0-3.1,7.37c0,.75,0,1.51,0,2.39L10.64,64.42a26.75,26.75,0,0,1,.75,5.18c-.21,4.43-.69,8.84-1.05,13.27C10,87.57,9.43,92.27,9.28,97a10.31,10.31,0,0,0,8.85,10.53,100.46,100.46,0,0,0,10.85.27,5.17,5.17,0,0,0,.74-.09V94.15h-4.5v4.42ZM85.94,79.76l.66.2q17.36,4.68,34.73,9.36c1.9.51,3.14-.22,3.7-2.15q1.56-5.44,3.1-10.91c.62-2.21-.11-3.39-2.38-3.89L105,67.76c-2.08-.46-4.18-.91-6.34-1.37-.12.82-.17,1.51-.33,2.17a9.26,9.26,0,0,1-9.14,7.19,1.79,1.79,0,0,0-1.31.49C87.19,77.31,86.63,78.49,85.94,79.76Zm-60.68,9.7h4.89q14.42,0,28.84,0c.54,0,1.15.2,1.33-.65.27-1.28.66-2.52.91-3.8a1.19,1.19,0,0,0-.4-1,19.08,19.08,0,0,1-6.51-7.78c-.1-.21-.39-.49-.58-.48-2.23.1-4.16-.86-6.22-1.49-5-1.53-10-2.78-15.07-4.1a1.37,1.37,0,0,0-1.13.29,16.17,16.17,0,0,1-5.32,4,1.4,1.4,0,0,0-.71,1C25.25,80.06,25.26,84.66,25.26,89.46ZM57.37,61.21c0,2.72,0,5.32,0,7.93A13.73,13.73,0,0,0,70.17,82.57,13.54,13.54,0,0,0,84.51,71.44c.48-3,.24-6.16.31-9.24a4.9,4.9,0,0,0-.11-.81,14.67,14.67,0,0,1-7.2.25A11.62,11.62,0,0,1,71.46,58C67.5,62.25,62.72,62.68,57.37,61.21Zm52.74,56.47-9.44,5.14c.34.68.74,1.5,1.07,2.18l6-1.34v4.75a9.88,9.88,0,0,0-7.23,3.66c-1.12,1.23-2.39,2.33-3.5,3.57a8.27,8.27,0,0,0-.93,2c4.37,0,8.31,0,12.25,0a1.26,1.26,0,0,0,.93-.6,42.67,42.67,0,0,0,2.66-6.1C113.2,126.25,111.78,121.89,110.11,117.68ZM16.41,61.3a14.52,14.52,0,0,1,3.82-6.78,2.75,2.75,0,0,0,.38-1.77c0-.17-.69-.4-1.09-.47q-3.3-.62-6.61-1.15A6.61,6.61,0,0,1,7.4,46.72c-.36-1-1-1-1.59-.6a2.86,2.86,0,0,0-1.14,1.8c-.12,2.8-.12,5.62,0,8.42a2.36,2.36,0,0,0,1.12,1.79C9.25,59.27,12.77,60.24,16.41,61.3Zm17.81,4.57,9.08,2.45c.42-2,.72-3.93,1.3-5.79a1.76,1.76,0,0,0-.21-1.83c-1.66-2.35-3.25-4.75-4.88-7.12a1.26,1.26,0,0,0-.63-.5c-1.45-.34-2.9-.64-4.66-1ZM71.1,97.69c2.15-2.16,4.19-4.19,6.21-6.25a1.12,1.12,0,0,0,.29-.83c-.3-1.38-.68-2.74-1.06-4.23a19.43,19.43,0,0,1-10.9,0c-.37,1.47-.73,2.79-1,4.13a1.19,1.19,0,0,0,.28.94C66.91,93.51,69,95.54,71.1,97.69ZM20.65,47.81a18.65,18.65,0,0,0-.06-3.54,2.42,2.42,0,0,0-1.38-1.46,43.72,43.72,0,0,0-5.41-1.37,2.33,2.33,0,0,0-1.75.48c-1.24,1.1-.63,4.11,1,4.5C15.49,47,18,47.34,20.65,47.81ZM52.75,62a4.42,4.42,0,0,0-4,2.44,4.31,4.31,0,0,0,.38,4.83,4.24,4.24,0,0,0,3.66,1.83Zm36.68,9.09A4.58,4.58,0,0,0,94,66.37a4.36,4.36,0,0,0-4.6-4.24ZM63,102.42l4.29-2.14c-1.78-1.77-3.54-3.4-5.15-5.16a3,3,0,0,0-3.25-.92C60.2,96.91,61.53,99.59,63,102.42Zm12-2.11,4.26,2.1,4-8c-.93,0-1.91-.3-2.3,0C78.91,96.27,77,98.27,75,100.31Zm21.36,29.28c1.87-1.55,1.81-3,0-4.59Z"/><path class="cls-1" d="M109.05,50.14l-2.53-3.8a25.54,25.54,0,0,1,10.77-4.66c-1-3.85.19-7.2,2.25-10.49l4,2c-.32.67-.58,1.29-.91,1.88-1.5,2.69-1.6,5.37.21,7.93s4.67,3.28,7.71,2.85a8,8,0,0,0,7-8.45,8.1,8.1,0,0,0-8.14-7.53c-1,0-2.1,0-3.24,0V25.3a19.2,19.2,0,0,1,3.64,0c1.8.37,3.11-.39,4.45-1.37a7.59,7.59,0,0,0,3.07-8,7.28,7.28,0,0,0-3.93-5c-3.66-1.86-7.33-3.71-11-5.51A7,7,0,0,0,113.22,8c-1.8,3.15-.81,6.89,2.42,9.06.8.55,1.61,1.09,2.56,1.72-.84,1.25-1.63,2.46-2.59,3.9-1.62-1.23-3.16-2.46-4.75-3.61a2,2,0,0,0-1.35-.45A7.92,7.92,0,0,0,108.87,34,32.24,32.24,0,0,0,110,30.72c.15-.64.33-.9,1-.88,1.17.05,2.35,0,3.85,0a17.8,17.8,0,0,1-.9,3.86,16,16,0,0,1-3,4.52,73.65,73.65,0,0,1-6.34,5l-2.74-3.66,2.9-2.25c-4.47-3.07-6.74-7.22-6-12.61s4.09-8.78,9.15-10.43a28.77,28.77,0,0,1,0-4.65,11.34,11.34,0,0,1,16-8.52Q130,3.85,135.85,7A12.16,12.16,0,0,1,138,26.81c-.3.27-.61.53-1.15,1a6.29,6.29,0,0,1,.83.55,12.47,12.47,0,0,1,3.67,13.85,12.69,12.69,0,0,1-11.7,8.33,12.14,12.14,0,0,1-9.78-3.86,2.22,2.22,0,0,0-1.72-.41A20.21,20.21,0,0,0,109.05,50.14Z"/></g></g></svg>