<svg xmlns="http://www.w3.org/2000/svg" viewBox="0 0 52.13 69.86"><defs><style>.cls-1{fill:#fff;}</style></defs><g id="Capa_2" data-name="Capa 2"><g id="Capa_1-2" data-name="Capa 1"><path class="cls-1" d="M0,26a26.07,26.07,0,0,1,51.48-5.77,25.82,25.82,0,0,1-12,28.05,1.88,1.88,0,0,0-.7.85c-2.19,5.48-4.33,11-6.52,16.45a6.54,6.54,0,0,1-8.9,3.62,6.23,6.23,0,0,1-3.26-3.5c-2.19-5.5-4.36-11-6.57-16.49a2,2,0,0,0-.74-.89A25.39,25.39,0,0,1,.19,28.79C.08,27.88.06,27,0,26ZM26.06,5.45A20.89,20.89,0,0,0,18.3,7,20.66,20.66,0,0,0,5.76,29.49,20,20,0,0,0,16.37,44.14a3.79,3.79,0,0,1,1.82,2c1,2.75,2.15,5.47,3.23,8.2Q23.25,59,25.07,63.6c.27.68.76,1,1.32.74a1.72,1.72,0,0,0,.81-.89Q30.65,54.84,34,46.21a3.88,3.88,0,0,1,1.86-2.09A20.41,20.41,0,0,0,46.47,23.17,20.67,20.67,0,0,0,26.06,5.45Z"/><path class="cls-1" d="M12.75,26.07A13.33,13.33,0,1,1,26.1,39.38,13.32,13.32,0,0,1,12.75,26.07Zm5.47,0a7.86,7.86,0,1,0,7.88-7.85A7.88,7.88,0,0,0,18.22,26Z"/></g></g></svg>