<svg xmlns="http://www.w3.org/2000/svg" viewBox="0 0 121.07 101.58"><defs><style>.cls-1{fill:#fff;}</style></defs><g id="Capa_2" data-name="Capa 2"><g id="Capa_1-2" data-name="Capa 1"><path class="cls-1" d="M106,91c.49,1.41,1,2.85,1.51,4.31s.14,2.48-1.41,3c-2.53.93-5.07,1.84-7.61,2.75-1.55.55-2.45.1-3-1.47-.43-1.19-.87-2.37-1.26-3.57-.19-.58-.43-.88-1.11-.76a4.33,4.33,0,0,1-1.68,0c-1.21-.27-1.75.28-2.15,1.34a29,29,0,0,1-1.43,3,1.94,1.94,0,0,1-2.82,1c-2.58-1.25-5.15-2.54-7.71-3.84A1.94,1.94,0,0,1,76.44,94c.56-1.25,1.14-2.49,1.75-3.71a.84.84,0,0,0-.2-1.17c-.65-.63-1.19-1.38-1.85-2a1.24,1.24,0,0,0-1-.28c-1.31.4-2.58.91-3.87,1.35a2,2,0,0,1-2.86-1.31c-1-2.67-2.1-5.34-3.13-8-.58-1.5-.16-2.39,1.38-2.94,1.22-.43,2.44-.88,3.68-1.26a.89.89,0,0,0,.77-1A16.49,16.49,0,0,1,71.2,71c.09-.81-.42-1-1-.8-5.61,1.74-11.36.48-17,.81a6.06,6.06,0,0,1-2-.48c-1.52-.47-2.18,0-2,1.53a3,3,0,0,1,0,.42c.14,2.38.14,2.38,2.36,3.16.76.27,1.52.53,2.28.82a1.93,1.93,0,0,1,1.29,2.67q-1.39,4.07-2.88,8.12a1.92,1.92,0,0,1-2.69,1.24c-1.3-.43-2.59-.88-3.86-1.37a.89.89,0,0,0-1.25.33,10.45,10.45,0,0,1-1,1.2c-1.19,1.31-1.2,1.31-.41,3,.42.88.85,1.76,1.25,2.66a2,2,0,0,1-1,2.89c-2.53,1.28-5.07,2.56-7.62,3.8a1.94,1.94,0,0,1-2.87-1c-.57-1.16-1.17-2.32-1.65-3.52a1.1,1.1,0,0,0-1.44-.79,2.85,2.85,0,0,1-1,.09C27,95.42,26.3,96.3,26,97.8a14.89,14.89,0,0,1-.77,2.18,2.07,2.07,0,0,1-2.81,1.46c-2.66-.86-5.31-1.78-7.95-2.72A1.94,1.94,0,0,1,13.28,96c.48-1.35,1-2.7,1.52-4,.22-.55.17-.9-.35-1.22a8.23,8.23,0,0,1-1-.81c-1.55-1.4-1.55-1.4-3.4-.52-.86.41-1.7.83-2.57,1.2a1.93,1.93,0,0,1-2.74-1q-2-3.83-3.85-7.7a1.93,1.93,0,0,1,1-2.88c1.22-.61,2.48-1.15,3.68-1.8a1.29,1.29,0,0,0,.5-.93c0-.8-.11-1.61-.06-2.41a1,1,0,0,0-.86-1.18c-1.27-.4-2.53-.85-3.77-1.32A1.83,1.83,0,0,1,.16,68.84q1.43-4.11,2.92-8.21a1.91,1.91,0,0,1,2.69-1.25c1.35.49,2.7,1,4,1.54a.82.82,0,0,0,1.15-.32,15.42,15.42,0,0,1,1.75-2,.93.93,0,0,0,.21-1.27c-.56-1.25-1.09-2.51-1.6-3.77a2,2,0,0,1,1.07-2.87c2.25-1.14,4.49-2.29,6.77-3.37a1.48,1.48,0,0,0,1-1.61c-.05-3.79,0-7.58,0-11.37,0-1.93.64-2.55,2.6-2.56,2.18,0,4.36,0,6.53,0a1,1,0,0,0,1.2-.81c.63-1.74,1.35-3.46,2.14-5.13a1,1,0,0,0-.24-1.43c-1.62-1.61-3.2-3.26-4.78-4.9-1.18-1.22-1.19-2.17,0-3.35q4.38-4.41,8.78-8.78c1.19-1.18,2.12-1.16,3.34,0,1.64,1.63,3.29,3.26,4.9,4.91a1,1,0,0,0,1.35.26q2.57-1.2,5.23-2.18A1,1,0,0,0,52,9.29c0-2.32,0-4.64,0-6.95C51.94.71,52.62,0,54.22,0H66.75c1.66,0,2.33.68,2.34,2.38,0,2.32,0,4.63,0,7a1,1,0,0,0,.78,1.12c1.77.66,3.52,1.4,5.23,2.19a1,1,0,0,0,1.35-.24c1.61-1.66,3.26-3.29,4.9-4.92,1.21-1.2,2.21-1.2,3.44,0L93.41,16c1.26,1.24,1.26,2.25,0,3.51-1.81,1.81-3.63,3.61-5.35,5.32.87,2.19,1.66,4.27,2.54,6.32a1.21,1.21,0,0,0,.94.52c2.38,0,4.77,0,7.15,0,1.87,0,2.52.67,2.52,2.55,0,3.72,0,7.44,0,11.16a1.27,1.27,0,0,0,.86,1.34c2.27,1.1,4.51,2.24,6.77,3.37,1.6.8,1.89,1.69,1.1,3.33-.55,1.13-1.08,2.28-1.66,3.4-.25.47-.28.81.18,1.16a8.32,8.32,0,0,1,.88.9c1.48,1.63,1.48,1.63,3.6.88.82-.3,1.64-.61,2.47-.88A1.91,1.91,0,0,1,118,60.12c1,2.7,1.95,5.4,2.89,8.12A2,2,0,0,1,119.56,71c-1.3.51-2.61,1-3.93,1.47a1,1,0,0,0-.77,1.14,9,9,0,0,1,0,1.37c-.12,1.78-.12,1.78,1.53,2.56,1,.45,1.91.88,2.84,1.36a1.9,1.9,0,0,1,.93,2.74q-1.89,3.89-3.85,7.71a1.9,1.9,0,0,1-2.74,1c-1.31-.58-2.59-1.24-3.9-1.82a1,1,0,0,0-.9.06C107.83,89.28,107,90.11,106,91ZM38.21,69.36l5.25-5.17c1.07-1,1.78-1.11,3.09-.36,1,.59,2.09,1.16,3.17,1.65a15.87,15.87,0,0,0,7.41,1.59c3-.14,6,0,9.05,0a4.15,4.15,0,0,0,1.46-.15c2.24-.88,4.51-1.72,6.66-2.79,2-1,2.32-1,3.92.56l5,5,6.11-6.82c-1.52-1.5-3.3-3.24-5-5a1.91,1.91,0,0,1-.46-2.64,28.85,28.85,0,0,0,3.49-8.41,1.85,1.85,0,0,1,1.92-1.48c.53,0,1.05,0,1.58,0H97V36H89.75c-1.67,0-2.12-.49-2.66-2.09a39.44,39.44,0,0,0-2.54-6.53c-1.79-3.26-1.19-3.27.85-5.33L89.47,18l-6.55-6.51-5,5.06c-1.14,1.13-1.71,1.08-3.17.39-2.43-1.14-4.91-2.21-7.42-3.14-1.7-.62-2.08-.92-2.08-2.74V3.88H55.93c0,2.51,0,5,0,7.41,0,1.49-.52,2-1.91,2.46-2.55.95-5.09,2-7.55,3.12-1.65.77-2.15.84-3.42-.43l-5-5L31.53,18l5.11,5.35c1.11,1.16,1.07,1.74.39,3.18a66.27,66.27,0,0,0-2.94,6.83c-.79,2.24-.92,2.49-3.29,2.49H24v9.27h7c1.94,0,2.26.4,2.89,2.19a74.26,74.26,0,0,0,3,7.15c.81,1.67.88,2.17-.44,3.51l-5,5.07C33.74,65.14,36,67.23,38.21,69.36Zm-16,27.84c.48-1.34.95-2.66,1.43-4a2.18,2.18,0,0,1,2.49-1.61,43.77,43.77,0,0,0,5.12-.24c1.71-.18,2.25,0,3,1.58.56,1.19,1.12,2.38,1.71,3.61l4.4-2.15c-.65-1.35-1.26-2.61-1.85-3.88a2.13,2.13,0,0,1,.6-2.81c1.27-1.3,2.49-2.65,3.64-4a2.13,2.13,0,0,1,2.74-.86c1.32.45,2.63.93,4,1.42l1.66-4.6c-1.4-.47-2.69-.9-4-1.35a2.09,2.09,0,0,1-1.63-2.45,44.86,44.86,0,0,0-.19-4.92,3.61,3.61,0,0,1,.37-2.78,1.4,1.4,0,0,0-1,.22c-.58.51-1,1.14-1.65,1.62a2.78,2.78,0,0,0-1,2.81,14.26,14.26,0,1,1-28.46,1.1A13.86,13.86,0,0,1,26,60a8.63,8.63,0,0,0,6.15-3.21c1-1.15,1.08-1.1,0-2.59-.49,2.33-2.16,2.07-3.84,2a25.47,25.47,0,0,0-4.18.29c-1.44.17-2-.07-2.69-1.39l-1.8-3.56-2.28,1.09-2.16,1,1.9,3.81c.6,1.23.38,1.92-.58,2.89A49.68,49.68,0,0,0,13,64.27c-.95,1.17-1.53,1.43-3,.92L6.15,63.83c-.29.83-.55,1.55-.8,2.27s-.53,1.5-.82,2.32l4,1.45a2.16,2.16,0,0,1,1.63,2.55,36.78,36.78,0,0,0,.19,4.81c.16,1.48,0,2.06-1.33,2.73L5.32,81.82l2.24,4.64,3.57-1.77c1.31-.64,1.95-.44,3,.59a46.15,46.15,0,0,0,3.82,3.44c1.27,1,1.52,1.56,1,3.14-.43,1.25-.87,2.5-1.33,3.81L21.33,97ZM88.74,53.87c-.91,1.73-.91,1.73.29,2.92.57.57,1.19,1.1,1.7,1.72a3,3,0,0,0,2.54,1.09,14.31,14.31,0,1,1-.91,28.6A14.06,14.06,0,0,1,79,74a5.87,5.87,0,0,0-2.36-5.4c-.2-.15-.33-.37-.53-.51a1.3,1.3,0,0,0-.38-.15c-.06,1-.13,1.9-.17,2.81,0,1.43-.19,2.87-.11,4.3.09,1.66-.21,2.26-1.8,2.83l-3.8,1.35c.56,1.58,1.08,3.08,1.59,4.52a2,2,0,0,0,.27,0l3.56-1.25c1.61-.56,2.11-.32,3.14,1a41.1,41.1,0,0,0,3.37,3.73c1.13,1.1,1.33,1.72.63,3.14l-1.74,3.49L85.07,96l1.68-3.34c.82-1.63,1.32-1.79,3.1-1.57a31.06,31.06,0,0,0,4.92.2c1.49,0,2.13.25,2.64,1.65l1.42,4,4.59-1.66c-.5-1.41-1-2.73-1.41-4s-.16-1.94.92-2.8A37.35,37.35,0,0,0,106.68,85c1.26-1.31,1.75-1.51,3.37-.75l3.61,1.7,1.72-4.73c-1.29-.64-2.51-1.24-3.72-1.87a2.08,2.08,0,0,1-1.25-2.48c.16-1.77.26-3.56.26-5.34s.25-2.13,1.86-2.71l3.76-1.35c-.56-1.61-1.08-3.08-1.62-4.59-1.4.49-2.68.95-4,1.39s-2,.18-2.82-.89a51.63,51.63,0,0,0-3.5-3.89c-1.13-1.12-1.31-1.7-.58-3.15.57-1.14,1.16-2.27,1.76-3.46l-4.41-2.12-1.76,3.71c-.69,1.42-1.32,1.67-2.85,1.47a25.9,25.9,0,0,0-4.81-.29C90.28,55.78,89.24,55.52,88.74,53.87ZM38.17,74.65A26.38,26.38,0,0,1,36,73c-1.07-1-2.06-2-3.07-3-1.87-1.86-3.82-3.64-5.56-5.61a1.69,1.69,0,0,0-2-.59A10.38,10.38,0,1,0,38.17,74.65Zm44.72,0c0,.11,0,.43,0,.74A10.35,10.35,0,1,0,96.31,64a2.37,2.37,0,0,0-3,.7c-2.7,2.94-5.6,5.7-8.45,8.5A16.76,16.76,0,0,1,82.89,74.64ZM23.34,49c.43.93.86,1.91,1.35,2.87a.75.75,0,0,0,.55.34c1.18,0,2.36,0,3.56,0,.36-1.07.7-2.06,1.1-3.22Zm68.11.07a9.37,9.37,0,0,1,.45,1.36c.2,1.06.71,1.54,1.86,1.38a16.66,16.66,0,0,1,2,.11,1,1,0,0,0,.75-.3c.43-.78.78-1.61,1.22-2.55Z"/><path class="cls-1" d="M79.38,40.43A18.81,18.81,0,1,1,60.62,21.57,18.77,18.77,0,0,1,79.38,40.43ZM60.54,25.55A14.9,14.9,0,1,0,75.47,40.47,14.95,14.95,0,0,0,60.54,25.55Z"/></g></g></svg>