<svg xmlns="http://www.w3.org/2000/svg" viewBox="0 0 124.44 126.27"><defs><style>.cls-1{fill:#609;}</style></defs><g id="Capa_2" data-name="Capa 2"><g id="Capa_1-2" data-name="Capa 1"><path class="cls-1" d="M29.86.05A33.62,33.62,0,0,1,42.48,1.69,30.85,30.85,0,0,1,54.22,8.91c3.49,3.44,7,6.89,10.37,10.41a3.86,3.86,0,0,1,.88,2.17,36.56,36.56,0,0,1,0,3.92,2.33,2.33,0,0,0,1.71,2.43,1.66,1.66,0,0,0,.21.06c5.54.79,8.72,5,12.28,8.6a1.94,1.94,0,0,1,0,2.84q-5.23,5.31-10.55,10.55a2,2,0,0,1-3,0Q63,46.79,59.93,43.66a3.77,3.77,0,0,1-.75-1.36c-.55-1.54-1-3.11-1.58-4.66a2.53,2.53,0,0,0-2.53-1.89,6,6,0,0,0-5.8,2.39c-4.8,5.69-9.76,11.23-14.56,16.9-5.73,6.77-11.36,13.61-17,20.42A6.28,6.28,0,0,1,8,76c-2-1.94-3.92-3.9-5.87-5.86-2.92-2.94-2.88-6.77.12-9.6Q17.93,45.76,33.57,31c2.06-2,4-4,6.07-6a2.79,2.79,0,0,0,0-3.76l-17-17.06c-.24-.24-.6-.45-.68-.73-.19-.72-.53-1.59-.28-2.17A2.52,2.52,0,0,1,23.37.1C25.31,0,27.26.05,29.86.05Zm6.07,34.56-8.55,8L5.26,63.48c-1.38,1.29-1.38,2.37,0,3.72C7.11,69.1,9,71.05,11,72.88a2.92,2.92,0,0,0,2.06.74,3.32,3.32,0,0,0,1.74-1.25q8-9.53,15.94-19.11l10.88-13ZM28.69,4.33c.42.44.68.74,1,1,4.59,4.6,9.21,9.18,13.77,13.82a3,3,0,0,1,1,2.1c-.35,2.5.71,4.2,2.55,5.64a7.18,7.18,0,0,1,1.43,1.43,7.34,7.34,0,0,0,7.79,3.24,3.43,3.43,0,0,1,3.07,1.24A8.08,8.08,0,0,1,61.85,37a6.23,6.23,0,0,0,.36.93c1.85-1.86,3.66-3.67,5.49-5.52a14.9,14.9,0,0,1-2.93-1,19.2,19.2,0,0,1-2.51-2.2,2.68,2.68,0,0,1-.93-2.29c0-1.38.05-2.76,0-4.14a2.23,2.23,0,0,0-.55-1.36c-3.15-3.2-6.29-6.41-9.52-9.52C45,5.89,37.45,3.68,28.69,4.33ZM74.9,37.91l-3-3.16-7.37,7.33,3,3.16C70.05,42.77,72.52,40.29,74.9,37.91ZM42.5,28.58c-1.1,1-2.19,2.07-3.18,3l5.19,5.18,3.11-3.08Z"/><path class="cls-1" d="M81.83,98.92c-1.7-2.27-3.36-4.48-5-6.7-1.12-1.51-1.07-2.28.25-3.6l6.49-6.5c-.27-.29-.5-.56-.76-.82-2-2-4-4-5.94-6a2.1,2.1,0,0,1,0-3.33c1.42-1.44,2.81-2.91,4.3-4.27a1.56,1.56,0,0,0,.42-2.12c-.53-1.19-1-2.43-1.38-3.67a2.13,2.13,0,0,1,2.15-3c.18,0,.37,0,.56,0,5.83.4,11.53-.55,17.22-1.69,4.25-.85,8.52-1.59,12.79-2.35,2.42-.44,3.48.72,2.9,3.11-.94,3.92-1.9,7.84-2.79,11.77a2.65,2.65,0,0,0,.28,1.62c1.26,2.61,2.62,5.18,3.87,7.8.26.53.43.8,1.09.83a6.29,6.29,0,0,1,6.12,7.36c-.37,2.59-.68,5.19-1,7.78a6.32,6.32,0,0,1-6.47,5.88,1.46,1.46,0,0,0-1.54.91,28.6,28.6,0,0,1-11.08,11.76,1.55,1.55,0,0,0-.92,1.57c.07,1.57,0,3.14,0,4.71a6.23,6.23,0,0,1-6.28,6.27c-2.76,0-5.53,0-8.3,0a6.28,6.28,0,0,1-6.46-6.33,14.17,14.17,0,0,0,0-1.46,1.4,1.4,0,0,0-.43-.65A9.88,9.88,0,0,1,80.18,116c-1.3-2.39-2.44-4.87-3.7-7.29a2.58,2.58,0,0,1,.29-3.09C78.47,103.46,80.11,101.23,81.83,98.92Zm-.91-8.24,5,6.62c1,1.28.94,2,0,3.23-1.57,2.1-3.12,4.21-4.72,6.27a1.25,1.25,0,0,0-.14,1.6,12.46,12.46,0,0,1,1.24,2.51c.69,2.26,2.06,2.93,4.44,2.82,3.71-.18,7.39-.23,10.93-1.52a24.88,24.88,0,0,0,14.64-13.54,2.68,2.68,0,0,1,2.93-1.86,13.53,13.53,0,0,0,1.91,0,1.93,1.93,0,0,0,2-1.65c.42-2.92.8-5.84,1.1-8.78a2,2,0,0,0-2-2.16c-.6,0-1.2,0-1.79,0-1.66,0-2.25-.49-2.69-2.1a25,25,0,0,0-10.59-14.78c-5.43-3.63-11.46-4.58-17.93-4.09A14.59,14.59,0,0,0,86,65.39c1,1.78.57,3.13-.94,4.42s-2.61,2.52-4,3.83l6.49,6.47c1.5,1.5,1.49,2.46,0,4C85.37,86.25,83.19,88.41,80.92,90.68ZM86.56,118c0,.71,0,1.34,0,2a2,2,0,0,0,2,2.06c2.91.06,5.83,0,8.74,0a1.75,1.75,0,0,0,1.84-1.64c.12-1.35,0-2.73,0-4-2.12.44-4.15,1-6.2,1.26S88.77,117.86,86.56,118ZM109.4,66.58l1.71-7.09-9.72,1.77Z"/><path class="cls-1" d="M62.18,82.07l6.4,6.41c1.49,1.48,1.54,2.21.29,3.87-1.56,2.09-3.13,4.19-4.78,6.38,1.78,1.78,3.48,3.6,5.32,5.27a11,11,0,0,1,3.22,5c.59,1.89,1.35,3.72,2.06,5.57a2.34,2.34,0,0,1-.42,2.78,1.47,1.47,0,0,0-.3.89c0,.82,0,1.66-.07,2.47a6.25,6.25,0,0,1-6.3,5.54q-4.14,0-8.3,0a6.29,6.29,0,0,1-6.41-6.38c0-.67,0-1.34,0-2-2.2-.52-4.37-.9-6.45-1.56a29.37,29.37,0,0,1,4.72-57A102.58,102.58,0,0,1,63.7,59a2,2,0,0,1,2,2.81c-.47,1.45-1,2.89-1.59,4.3a1.07,1.07,0,0,0,.28,1.37c1.51,1.46,3,2.95,4.45,4.44,1.27,1.27,1.28,2.31,0,3.57C66.64,77.64,64.44,79.82,62.18,82.07Zm2.68,8.62-6.51-6.48c-1.7-1.71-1.71-2.52,0-4.22l6.35-6.34c-1.58-1.56-3.07-3.07-4.6-4.54a2.34,2.34,0,0,1-.61-2.84c.42-1,.78-2,1.29-3.32-3.42.22-6.62.16-9.73.67a25.22,25.22,0,0,0,4.67,50c4.41,0,8.83,0,13.24,0,.25,0,.49,0,.86-.07-.36-1-.73-1.88-1-2.8a8.88,8.88,0,0,0-2.54-4c-2.07-1.94-4-4-6-6-1.28-1.27-1.34-2.1-.27-3.52C61.55,95.1,63.16,93,64.86,90.69ZM69.72,118H57.12c0,.67,0,1.27,0,1.86A2,2,0,0,0,59.25,122c2.79,0,5.59,0,8.38,0a2,2,0,0,0,2.09-2.15C69.74,119.27,69.72,118.64,69.72,118Z"/><path class="cls-1" d="M103.3,82h-4V78h4Z"/></g></g></svg>