<svg xmlns="http://www.w3.org/2000/svg" viewBox="0 0 35.63 26.39"><defs><style>.cls-1{fill:#fff;}</style></defs><g id="Capa_2" data-name="Capa 2"><g id="Capa_1-2" data-name="Capa 1"><path class="cls-1" d="M5.19,14.57l.28.33,8.2,9a1.44,1.44,0,0,1,0,2.13,1.48,1.48,0,0,1-2.15-.16L.11,13.3,0,13.16A1.83,1.83,0,0,1,.13,13L11.76.52A1.43,1.43,0,0,1,13.34.08a1.38,1.38,0,0,1,1,1.21,1.46,1.46,0,0,1-.44,1.21L6.11,10.77l-.85.91H34a1.47,1.47,0,0,1,1.55,1.12,1.43,1.43,0,0,1-1.11,1.73,3.13,3.13,0,0,1-.61,0H5.19Z"/></g></g></svg>