<svg xmlns="http://www.w3.org/2000/svg" viewBox="0 0 92.66 114.98"><defs><style>.cls-1{fill:#609;}</style></defs><g id="Capa_2" data-name="Capa 2"><g id="Capa_1-2" data-name="Capa 1"><path class="cls-1" d="M54.26,53.79c.3,1.2.5,2.24.82,3.24a1.17,1.17,0,0,0,.78.64c4,.37,8,.7,12,1A16.29,16.29,0,0,1,81.35,67c3.4,5.76,6.69,11.57,10,17.39A10.13,10.13,0,0,1,84,99.43a1.78,1.78,0,0,1-.39.07,3,3,0,0,0-3,1.94,4.41,4.41,0,0,1-4.17,2.38c-1.61,0-3.22,0-4.84,0H70.43v6.7c0,3-1.42,4.44-4.4,4.44q-19.71,0-39.43,0c-2.93,0-4.37-1.43-4.37-4.35v-33l-5.57-.93c-2.47-.42-4.95-.75-7.4-1.25a11.56,11.56,0,0,1-7.4-17.63q7-11,14.06-21.83c1.15-1.74,1.18-3.66,1.52-5.54.81-4.4,1.33-8.86,2.31-13.22A21.91,21.91,0,0,1,40.78.1c4-.13,8.11-.16,12.15.09A21.93,21.93,0,0,1,73.17,18.35q1.44,8.12,2.67,16.26C77.12,43.25,70.24,52,61.56,53c-2.06.22-4.13.37-6.2.58A10.14,10.14,0,0,0,54.26,53.79Zm12.39,50c-.52,0-.94,0-1.36,0a5.36,5.36,0,0,1-5.6-3.23,1.12,1.12,0,0,0-.84-.43c-1.71,0-3.42,0-5.14,0a9.26,9.26,0,0,1-9.18-8.37c-.35-5.07,2.81-9.31,7.79-10a58.83,58.83,0,0,1,7.4-.14c.38,0,.76,0,1.16,0C61.51,75,62.12,68.51,62.74,62L56,61.43c.66,4,1.31,7.93,2,12-3.74-1.49-7.27-2.92-10.82-4.29a2.35,2.35,0,0,0-1.55,0c-2.19.82-4.35,1.72-6.51,2.58l-4.35,1.72,2-12.09H18.14c-.85,3.84-1.68,7.61-2.53,11.42L26,74.49v36.72H66.65ZM60.34,49.32A12.79,12.79,0,0,0,72.13,34.8C71.4,29.4,70.41,24,69.44,18.65A18.08,18.08,0,0,0,53.52,4a101.92,101.92,0,0,0-13.31-.13A18.2,18.2,0,0,0,23.5,17.4c-.14.49-.22,1-.3,1.38h4.51c.49-2.93,1.64-3.9,4.77-3.9H60.63c2.74,0,4.24,1.49,4.24,4.2q0,8.9,0,17.78a18.53,18.53,0,0,1-4.07,11.8C60.64,48.86,60.51,49.07,60.34,49.32ZM31.55,26.09c0,.23,0,.42,0,.62,0,3.65,0,7.3,0,11a12.62,12.62,0,0,0,.3,2.44c1.59,7.38,8.42,12.53,15.63,11.81A14.83,14.83,0,0,0,61.15,37c0-3.33,0-6.65,0-10v-.93ZM11.19,57.52h7.94a1.42,1.42,0,0,0,.14-.22q4.2-9.19,8.37-18.4a2.1,2.1,0,0,0,.17-.86q0-6.51,0-13c0-1.53-.71-2.48-1.94-2.66a2.33,2.33,0,0,0-2.66,2.06c-.86,3.37-1.67,6.76-2.57,10.13a10.43,10.43,0,0,1-1.15,2.68c-1.36,2.25-2.82,4.44-4.25,6.66C11.8,49.18,8.36,54.48,5,59.82a7.54,7.54,0,0,0-.19,8.23c1.55,2.74,4.09,3.83,7.17,4,.8-3.61,1.59-7.16,2.4-10.84H11.19Zm55.28,4.71c-.13,1.2-.25,2.24-.35,3.28q-1.52,16.21-3,32.42c-.15,1.68.33,2.22,2,2.22H75.68c1.83,0,2.36-.68,2-2.48-.51-2.48-1-5-1.5-7.44Q73.52,77,70.89,63.74c-.12-.63-.38-.93-1-1Zm8.85,3-.33.2q3.08,15.36,6.16,30.75c.89-.14,1.64-.24,2.38-.39A6.43,6.43,0,0,0,88,86c-3.24-5.73-6.49-11.45-9.82-17.13A35.85,35.85,0,0,0,75.32,65.19ZM60.5,85.43a3.94,3.94,0,0,0-.6-.1c-2.11,0-4.21,0-6.32,0a5.54,5.54,0,0,0-.08,11.08c1.77.07,3.55,0,5.32,0a.88.88,0,0,0,.68-.55C59.87,92.4,60.18,88.94,60.5,85.43Zm-29-63.18H61.09V18.67H31.53ZM23.34,57.37c.15.08.21.13.26.13,4.45,0,8.89,0,13.34,0,.2,0,.55-.17.59-.33.31-1.1.56-2.21.86-3.44-4.2-.73-8.5-.22-12.36-2.3Zm27.41-2.25a18.53,18.53,0,0,1-8.85,0,8.43,8.43,0,0,1-.37,1.41c-.77,1.64-.32,2.83,1.07,4a49.68,49.68,0,0,1,3.73,3.68c1.75-1.75,3.4-3.4,5-5.07a.85.85,0,0,0,.22-.68C51.34,57.34,51.05,56.27,50.75,55.12Zm-23.26-6.9,4.88,1.35-3.2-5C28.65,45.68,28.13,46.81,27.49,48.22Zm12,19.31c1.3-.51,2.38-.94,3.28-1.31L40.1,63.58C39.9,64.76,39.69,66,39.44,67.53Zm13.1-4.06-2.71,2.72,3.38,1.31C53,66,52.75,64.74,52.54,63.47Z"/></g></g></svg>