<svg xmlns="http://www.w3.org/2000/svg" viewBox="0 0 105.95 106.06"><defs><style>.cls-1{fill:#fff;}</style></defs><g id="Capa_2" data-name="Capa 2"><g id="Capa_1-2" data-name="Capa 1"><path class="cls-1" d="M42,73.73V106h-2.6V76.47c-.64-.12-1.19-.19-1.73-.32a10,10,0,0,1-7.93-9,45.72,45.72,0,0,1,.11-9.78,8.24,8.24,0,0,1,3.85-6A1.44,1.44,0,0,0,34.4,50c0-4.55,0-9.11,0-13.66,0-5.68,4.33-8.48,9.54-6.17.08,0,.18,0,.35.08a6,6,0,0,1,2.26-4.49,6.6,6.6,0,0,1,4-1.36c3.26-.05,5.26,1.78,6.36,5.76a18.74,18.74,0,0,1,2.5-.73,6.13,6.13,0,0,1,7.28,6.15c0,1.47,0,2.94,0,4.54.35-.14.61-.22.87-.33,4.53-1.87,9,1,9,5.89q0,12.09,0,24.18a6.27,6.27,0,0,1-4.41,6.37,1.21,1.21,0,0,0-.49.68,2.54,2.54,0,0,0,0,.78v28.34H69V73.74c.5,0,1,0,1.4,0,2-.08,3.26-1,3.36-3,.16-3.19.05-6.39.05-9.6-5,1.48-6.89.9-9.44-2.85a6.8,6.8,0,0,1-7.95-.12c-.25.37-.49.75-.76,1.1a5.92,5.92,0,0,1-4.7,2.31c-3.82.09-7.65,0-11.57,0V59c.3,0,.64-.05,1-.05,3.34,0,6.69,0,10,0,2.77,0,4.18-1.78,3.65-4.44a2.9,2.9,0,0,0-2.76-2.53,104.89,104.89,0,0,0-12.16.17c-4.12.42-6.45,3.07-6.79,7.17a39.13,39.13,0,0,0,.09,7.26c.48,4.41,3.45,7,7.9,7.2C40.83,73.76,41.38,73.73,42,73.73ZM56.88,44.38h0q0,4.42,0,8.84a3.27,3.27,0,0,0,3.45,3.56A3.32,3.32,0,0,0,64,53.28q0-8.81,0-17.59a3.38,3.38,0,0,0-3.64-3.62,3.32,3.32,0,0,0-3.46,3.66C56.87,38.61,56.88,41.5,56.88,44.38Zm-2.75,5.8c0-6.77,0-13.31,0-19.85a3,3,0,0,0-2.2-2.95A3.51,3.51,0,0,0,47,30.92c0,5.76,0,11.53,0,17.29,0,.28,0,.56.08.86C49.45,49.22,51.83,48.71,54.13,50.18ZM44.27,49v-1c0-3.83,0-7.67,0-11.5a11.82,11.82,0,0,0-.1-1.57,2.94,2.94,0,0,0-2.07-2.5,3.5,3.5,0,0,0-5,3.33c0,4.49,0,9,0,13.47a1.23,1.23,0,0,0,0,.3Zm22.44,1.56h0c0,1.79,0,3.59,0,5.39a3.55,3.55,0,0,0,7.07.16c.09-3.59.1-7.19,0-10.79,0-2.16-1.54-3.36-3.7-3.29a3.24,3.24,0,0,0-3.36,3.52C66.7,47.18,66.71,48.85,66.71,50.52Z"/><path class="cls-1" d="M21.72,20.06l-1.6,1.64L10.3,11.89,12,10.31Z"/><path class="cls-1" d="M85.88,21.7,84.1,20l9.81-9.8L95.58,12Z"/><path class="cls-1" d="M12,90.77l-1.69-1.68,9.8-9.78L21.81,81Z"/><path class="cls-1" d="M84.21,80.89c.49-.46,1.1-1,1.62-1.56l9.78,9.75c-.51.49-1.11,1.08-1.64,1.58Z"/><path class="cls-1" d="M49.22,0h2.6V12.46h-2.6Z"/><path class="cls-1" d="M0,51.77V49.15H12.43v2.62Z"/><path class="cls-1" d="M106,51.79H93.54V49.17H106Z"/></g></g></svg>