<svg xmlns="http://www.w3.org/2000/svg" viewBox="0 0 92.15 78.73"><defs><style>.cls-1{fill:#fff;}</style></defs><g id="Capa_2" data-name="Capa 2"><g id="Capa_1-2" data-name="Capa 1"><path class="cls-1" d="M46.22,12.09a28.32,28.32,0,0,1,8.31-8.33,7,7,0,0,1,1.63-.89,2.21,2.21,0,0,1,1.59.06,1.69,1.69,0,0,1,.46,1.42c-.62,3.78-1.31,7.55-2,11.32-.24,1.36-.55,2.72-.71,4.09A1.69,1.69,0,0,0,56,21.05c2.43,2.15,4.89,4.28,7.39,6.35a2.42,2.42,0,0,1,1,2.56,26.8,26.8,0,0,0-.41,5c1.72-2,3.44-3.91,5.23-6-.28-.3-.54-.59-.81-.86-2.81-2.82-5.61-5.65-8.45-8.43a1.78,1.78,0,0,1-.44-2.33Q63.3,9.37,67,1.26A1.85,1.85,0,0,1,69,0,22.2,22.2,0,0,1,86,9.12C93.31,19,94,29.71,88.59,40.76c-2.8,5.7-6.85,10.49-11.31,15-8.09,8.11-17.36,14.71-27,20.78-1.11.7-2.2,1.44-3.37,2a2,2,0,0,1-1.61.06c-13.18-8-25.82-16.71-35.78-28.71-4-4.79-7.2-10-8.71-16.14-2.35-9.51.4-23.11,11.3-30.15,9.4-6.07,21.45-3.84,28.64,2.66C42.68,8,44.36,10.1,46.22,12.09ZM55.1,6.57c-.71.53-1.15.84-1.57,1.17a27.13,27.13,0,0,0-6.13,7c-.89,1.4-1.8,1.36-2.75,0a51.13,51.13,0,0,0-3.87-5C33.91,2.26,20.86-.43,11.52,7.22,4.09,13.31.75,24.54,3.63,34.15c1.82,6,5.29,11.11,9.39,15.77C22.3,60.45,33.64,68.4,45.51,75.67a1.31,1.31,0,0,0,1.14-.06,160.38,160.38,0,0,0,25.82-19c5.41-5,10.3-10.45,13.74-17.06a26.27,26.27,0,0,0,.3-24.83A20.82,20.82,0,0,0,70.26,2.81a1.11,1.11,0,0,0-1.41.77q-3.15,6.87-6.38,13.68a1.17,1.17,0,0,0,.31,1.59c3,2.92,5.9,5.87,8.84,8.82.95.95,1,1.43.09,2.43-.71.83-1.43,1.65-2.15,2.48L63,40.08A1.36,1.36,0,0,1,60.51,39c0-.22.07-.43.1-.65.32-2.6.63-5.21,1-7.82a1.74,1.74,0,0,0-.69-1.78c-2.52-2.1-5-4.27-7.5-6.39a2,2,0,0,1-.74-2.11c.36-1.71.64-3.44.94-5.17C54.09,12.36,54.56,9.63,55.1,6.57Z"/></g></g></svg>