<svg xmlns="http://www.w3.org/2000/svg" viewBox="0 0 83.55 78.48"><defs><style>.cls-1{fill:#fff;}</style></defs><g id="Capa_2" data-name="Capa 2"><g id="Capa_1-2" data-name="Capa 1"><path class="cls-1" d="M41.74,5.47A25.87,25.87,0,0,1,81.37,36.19l-.74-.61c-6.14-5-12.79-5.78-20-2.46a1.4,1.4,0,0,1-1.1,0A17.78,17.78,0,0,0,33.83,46.17a16.58,16.58,0,0,0,4.68,14.89c3.15,3.26,6.38,6.44,9.58,9.66.21.2.41.42.59.62l-7,6.92c-.07-.07-.29-.26-.49-.47q-17-17.07-34-34.15A24.14,24.14,0,0,1,.34,30.12,25.7,25.7,0,0,1,18,1.31c8.2-2.6,15.9-1.28,23,3.6C41.22,5.08,41.46,5.26,41.74,5.47Zm4,65.87c-.17-.19-.37-.41-.58-.62-2.69-2.71-5.42-5.4-8.07-8.15A18.79,18.79,0,0,1,31.86,45.4,19.85,19.85,0,0,1,59.52,30.78a1.71,1.71,0,0,0,1.2,0A19.77,19.77,0,0,1,79.88,32.4l.53.3A23.7,23.7,0,0,0,73.34,8,23,23,0,0,0,60,2.23,23.75,23.75,0,0,0,41.78,8.16L41,7.51C34.4,2.37,27.07.83,19.07,3.14A23.67,23.67,0,0,0,2.25,28.84,22.35,22.35,0,0,0,8.73,42.3q16.2,16.25,32.38,32.53l.56.52Z"/><path class="cls-1" d="M60.14,37.1a15,15,0,0,1,10.07-2.8A14.81,14.81,0,0,1,83.42,46.84a14.4,14.4,0,0,1-4.3,12.52C73,65.47,66.9,71.63,60.8,77.77a7,7,0,0,0-.57.71c-.31-.29-.52-.48-.73-.69Q50.23,68.47,41,59.15a14.52,14.52,0,0,1-1.27-19.07A14.67,14.67,0,0,1,59.53,36.7Zm0,2.67-1-.81A12.61,12.61,0,0,0,43,39.52a12.49,12.49,0,0,0-.52,18.24l16.94,17c.23.22.47.44.71.68L60.6,75l17.8-17.9a6.39,6.39,0,0,0,.59-.68,12.07,12.07,0,0,0,1.21-13,12.09,12.09,0,0,0-11-7.13A12.49,12.49,0,0,0,60.15,39.77Z"/></g></g></svg>