<svg xmlns="http://www.w3.org/2000/svg" viewBox="0 0 32.21 27.04"><defs><style>.cls-1{fill:#fff;}</style></defs><g id="Capa_2" data-name="Capa 2"><g id="Capa_1-2" data-name="Capa 1"><path class="cls-1" d="M16.1,2.45h-15a1.53,1.53,0,0,1-.52,0A1.27,1.27,0,0,1,0,1.13,1.1,1.1,0,0,1,.79,0h30.3c.72,0,1.11.42,1.12,1.2s-.39,1.25-1.12,1.25Z"/><path class="cls-1" d="M16.09,27h-15A1.33,1.33,0,0,1,.61,27,1.25,1.25,0,0,1,0,25.67,1.07,1.07,0,0,1,.79,24.6c.12,0,.24,0,.36,0H31.07c.12,0,.24,0,.35,0a1.13,1.13,0,0,1,.79,1.21c0,.65-.34,1.18-.8,1.22H16.09Z"/><path class="cls-1" d="M16.07,14.74H1.15a2.07,2.07,0,0,1-.43,0C.3,14.64,0,14.09,0,13.48a1.14,1.14,0,0,1,.74-1.17,2.67,2.67,0,0,1,.4,0H31.08c.74,0,1.14.44,1.13,1.23s-.4,1.21-1.12,1.21Z"/></g></g></svg>